# xmcd CD database file
#
# Track frame offsets:
#	150
#	17713
#	30683
#	49547
#	64559
#	81317
#	95024
#	106906
#	122575
#	137791
#	154985
#	170115
#	189155
#
# Disc length: 2824 seconds
#
# Revision: 0
# Processed by: cddbd v1.5.2PL0 Copyright (c) Steve Scherf et al.
# Submitted via: CDex 2.02
#
DISCID=a80b060d
DTITLE=Karen Tyler - All Shades of Blue
DYEAR=2003
DGENRE=Blues
TTITLE0=Starvation Box Blues
TTITLE1=True Love
TTITLE2=Hen House Boogie
TTITLE3=All Shades of Blue
TTITLE4=Tehachapi Bound
TTITLE5=I'm Not Afraid
TTITLE6=New Thing
TTITLE7=Whatcha Gonna Do For Love
TTITLE8=Sing Me Up An Angel
TTITLE9=Lovin' You
TTITLE10=Crown Of Jewels
TTITLE11=3rd Avenue
TTITLE12=Lemon's Shoes
EXTD=YEAR: 2003
EXTT0=
EXTT1=
EXTT2=
EXTT3=
EXTT4=
EXTT5=
EXTT6=
EXTT7=
EXTT8=
EXTT9=
EXTT10=
EXTT11=
EXTT12=
PLAYORDER=
